<svg width="24" height="24" viewBox="0 0 24 24" fill="none" xmlns="http://www.w3.org/2000/svg">
<rect width="24" height="24" rx="12" fill="#F9CA3F"/>
<path d="M4 12C4 8.22877 4 6.34315 5.17157 5.17157C6.34315 4 8.22877 4 12 4C15.7712 4 17.6568 4 18.8285 5.17157C20 6.34315 20 8.22877 20 12C20 15.7712 20 17.6568 18.8285 18.8285C17.6568 20 15.7712 20 12 20C8.22877 20 6.34315 20 5.17157 18.8285C4 17.6568 4 15.7712 4 12Z" stroke="white" stroke-width="1.5" stroke-linejoin="round"/>
<path d="M15 12C15 13.6569 13.6569 15 12 15C10.3431 15 9 13.6569 9 12C9 10.3431 10.3431 9 12 9C13.6569 9 15 10.3431 15 12Z" stroke="white" stroke-width="1.5"/>
<path d="M16.508 7.5H16.499" stroke="white" stroke-width="2" stroke-linecap="round" stroke-linejoin="round"/>
</svg>
