<svg width="24" height="24" viewBox="0 0 24 24" fill="none" xmlns="http://www.w3.org/2000/svg">
<rect width="24" height="24" rx="12" fill="#F9CA3F"/>
<path d="M3 6L9.22172 9.91698C11.5154 11.361 12.4846 11.361 14.7783 9.91698L21 6" stroke="white" stroke-width="1.5" stroke-linejoin="round"/>
<path d="M3.01419 12.802C3.07303 15.5069 3.10245 16.8593 4.12046 17.8612C5.13847 18.8631 6.55529 18.8979 9.38894 18.9677C11.1354 19.0108 12.8646 19.0108 14.6111 18.9677C17.4447 18.8979 18.8615 18.8631 19.8796 17.8612C20.8976 16.8593 20.927 15.5069 20.9858 12.802C21.0047 11.9323 21.0047 11.0677 20.9858 10.198C20.927 7.49311 20.8976 6.14067 19.8796 5.13882C18.8615 4.13697 17.4447 4.10207 14.6111 4.03227C12.8646 3.98925 11.1354 3.98925 9.38893 4.03226C6.55529 4.10205 5.13847 4.13695 4.12045 5.13881C3.10244 6.14066 3.07303 7.4931 3.01418 10.198C2.99527 11.0677 2.99528 11.9323 3.01419 12.802Z" stroke="white" stroke-width="1.5" stroke-linejoin="round"/>
</svg>
